<svg xmlns="http://www.w3.org/2000/svg" viewBox="0 0 1278 1212" width="1278" height="1212" role="img" aria-label="Componentes de fluxograma"><title>Componentes de fluxograma</title><style>text{font-family:Arial,sans-serif;fill:#000}.kicker{font-family:monospace;font-size:10px;font-weight:600}.figure-title{font-size:21px;font-weight:700}.description{font-size:13px}.legend-label{font-size:13px}.edge-label{paint-order:stroke;stroke:white;stroke-width:4px;stroke-linejoin:round}.rail{fill:none;stroke:black;stroke-width:1;stroke-linecap:round;stroke-linejoin:round}.node-shape{stroke-linejoin:round}.selection{fill:none;stroke:#1675df;stroke-width:1.5;stroke-dasharray:4 3;pointer-events:none}.hit{stroke:transparent;stroke-width:16;fill:none;cursor:pointer}.node{cursor:move}.node text,.icon,.packet{pointer-events:none}.resize{fill:white;stroke:#1675df;cursor:nwse-resize}.port{fill:white;stroke:#2563eb;stroke-width:1.5;opacity:0;cursor:crosshair}.node:hover>.port,.node.selected>.port,.connecting .port{opacity:1}.diagram-controls{cursor:pointer}@media(prefers-reduced-motion:reduce){.packet{display:none}}</style><defs><pattern id="af-grid" width="5" height="5" patternUnits="userSpaceOnUse"><circle cx="1" cy="1" r=".45" fill="#e2e2e2"/></pattern></defs><rect width="1278" height="1212" fill="white"/><text x="32" y="44" class="kicker">CATÁLOGO · SVG EXTENSÍVEL</text><text x="32" y="86" class="figure-title">Componentes de fluxograma</text><text x="32" y="115" class="description"></text><g class="legend-marker" data-legend="request" transform="translate(39 145)"><rect x="-7" y="-7" width="14" height="14" rx="2" fill="#70a0ff" stroke="#000000" stroke-width=".6"/></g><text x="54" y="149" class="legend-label">Solicitação</text><g class="legend-marker" data-legend="response" transform="translate(161 145)"><circle cx="0" cy="0" r="7" fill="#9ae8c5" stroke="#000000" stroke-width=".6"/></g><text x="176" y="149" class="legend-label">Resposta</text><g class="legend-marker" data-legend="cdc" transform="translate(262 145)"><path d="M0 -7L7 0L0 7L-7 0Z" fill="#bb8ae8" stroke="#000000" stroke-width=".6"/></g><text x="277" y="149" class="legend-label">Alterações (CDC)</text><g transform="translate(0 162)" id="af-board"><rect width="1278" height="1050" fill="url(#af-grid)"/><g class="node" data-node="shape15" transform="translate(940 605)"><svg width="250" height="95" viewBox="0 0 100 100" preserveAspectRatio="none" overflow="visible"><rect width="100" height="100" rx="2" fill="#ffffff" stroke="#000000" stroke-width="1" vector-effect="non-scaling-stroke" class="node-shape"/></svg><g class="node-copy" transform="translate(125 10.06) scale(1) translate(-113 0)"><text class="node-title" x="113" y="14" text-anchor="middle" style="font-family:'Arial',Arial,sans-serif;font-size:14px;font-weight:400;font-style:normal;fill:#000000">Grupo / contêiner</text></g></g><g class="node" data-node="shape16" transform="translate(40 795)"><svg width="250" height="95" viewBox="0 0 100 100" preserveAspectRatio="none" overflow="visible"><rect width="100" height="100" rx="2" fill="#ffffff" stroke="#000000" stroke-width="1" vector-effect="non-scaling-stroke" class="node-shape"/><path d="M0 20H100" fill="none" stroke="#000000" stroke-width="1" vector-effect="non-scaling-stroke" class="node-detail"/></svg><g class="node-copy" transform="translate(125 10.06) scale(1) translate(-113 0)"><text class="node-title" x="113" y="14" text-anchor="middle" style="font-family:'Arial',Arial,sans-serif;font-size:14px;font-weight:400;font-style:normal;fill:#000000">Raia</text></g></g><g class="node" data-node="shape0" transform="translate(40 35)"><svg width="250" height="95" viewBox="0 0 100 100" preserveAspectRatio="none" overflow="visible"><rect width="100" height="100" rx="2" fill="#ffffff" stroke="#000000" stroke-width="1" vector-effect="non-scaling-stroke" class="node-shape"/></svg><g class="node-copy" transform="translate(17.5 38.96) scale(1) translate(0 0)"><text class="node-title" x="0" y="14" text-anchor="start" style="font-family:'Arial',Arial,sans-serif;font-size:14px;font-weight:400;font-style:normal;fill:#000000">Cartão / serviço</text></g></g><g class="node" data-node="shape1" transform="translate(340 35)"><svg width="250" height="95" viewBox="0 0 100 100" preserveAspectRatio="none" overflow="visible"><rect width="100" height="100" fill="#ffffff" stroke="#000000" stroke-width="1" vector-effect="non-scaling-stroke" class="node-shape"/></svg><g class="node-copy" transform="translate(125 38.96) scale(1) translate(-107.5 0)"><text class="node-title" x="107.5" y="14" text-anchor="middle" style="font-family:'Arial',Arial,sans-serif;font-size:14px;font-weight:400;font-style:normal;fill:#000000">Processo</text></g></g><g class="node" data-node="shape2" transform="translate(640 35)"><svg width="250" height="95" viewBox="0 0 100 100" preserveAspectRatio="none" overflow="visible"><rect width="100" height="100" rx="28" fill="#ffffff" stroke="#000000" stroke-width="1" vector-effect="non-scaling-stroke" class="node-shape"/></svg><g class="node-copy" transform="translate(125 38.96) scale(1) translate(-107.5 0)"><text class="node-title" x="107.5" y="14" text-anchor="middle" style="font-family:'Arial',Arial,sans-serif;font-size:14px;font-weight:400;font-style:normal;fill:#000000">Início / fim</text></g></g><g class="node" data-node="shape3" transform="translate(940 35)"><svg width="250" height="95" viewBox="0 0 100 100" preserveAspectRatio="none" overflow="visible"><polygon points="50,0 100,50 50,100 0,50" fill="#ffffff" stroke="#000000" stroke-width="1" vector-effect="non-scaling-stroke" class="node-shape"/></svg><g class="node-copy" transform="translate(125 38.96) scale(1) translate(-60 0)"><text class="node-title" x="60" y="14" text-anchor="middle" style="font-family:'Arial',Arial,sans-serif;font-size:14px;font-weight:400;font-style:normal;fill:#000000">Decisão</text></g></g><g class="node" data-node="shape4" transform="translate(40 225)"><svg width="250" height="95" viewBox="0 0 100 100" preserveAspectRatio="none" overflow="visible"><polygon points="12,0 100,0 88,100 0,100" fill="#ffffff" stroke="#000000" stroke-width="1" vector-effect="non-scaling-stroke" class="node-shape"/></svg><g class="node-copy" transform="translate(125 38.96) scale(1) translate(-90 0)"><text class="node-title" x="90" y="14" text-anchor="middle" style="font-family:'Arial',Arial,sans-serif;font-size:14px;font-weight:400;font-style:normal;fill:#000000">Entrada / saída</text></g></g><g class="node" data-node="shape5" transform="translate(340 225)"><svg width="250" height="95" viewBox="0 0 100 100" preserveAspectRatio="none" overflow="visible"><rect width="100" height="100" rx="2" fill="#ffffff" stroke="#000000" stroke-width="1" vector-effect="non-scaling-stroke" class="node-shape"/><path d="M8 0V100M92 0V100" fill="none" stroke="#000000" stroke-width="1" vector-effect="non-scaling-stroke" class="node-detail"/></svg><g class="node-copy" transform="translate(125 38.96) scale(1) translate(-107.5 0)"><text class="node-title" x="107.5" y="14" text-anchor="middle" style="font-family:'Arial',Arial,sans-serif;font-size:14px;font-weight:400;font-style:normal;fill:#000000">Subprocesso</text></g></g><g class="node" data-node="shape6" transform="translate(640 225)"><svg width="250" height="95" viewBox="0 0 100 100" preserveAspectRatio="none" overflow="visible"><path d="M0 0H100V85C60 65 40 105 0 85Z" fill="#ffffff" stroke="#000000" stroke-width="1" vector-effect="non-scaling-stroke" class="node-shape"/></svg><g class="node-copy" transform="translate(125 38.96) scale(1) translate(-107.5 0)"><text class="node-title" x="107.5" y="14" text-anchor="middle" style="font-family:'Arial',Arial,sans-serif;font-size:14px;font-weight:400;font-style:normal;fill:#000000">Documento</text></g></g><g class="node" data-node="shape7" transform="translate(940 225)"><svg width="250" height="95" viewBox="0 0 100 100" preserveAspectRatio="none" overflow="visible"><path d="M0 14C0 -4 100 -4 100 14V86C100 104 0 104 0 86Z" fill="#ffffff" stroke="#000000" stroke-width="1" vector-effect="non-scaling-stroke" class="node-shape"/><path d="M0 14C0 32 100 32 100 14" fill="none" stroke="#000000" stroke-width="1" vector-effect="non-scaling-stroke" class="node-detail"/></svg><g class="node-copy" transform="translate(125 38.96) scale(1) translate(-107.5 0)"><text class="node-title" x="107.5" y="14" text-anchor="middle" style="font-family:'Arial',Arial,sans-serif;font-size:14px;font-weight:400;font-style:normal;fill:#000000">Banco de dados</text></g></g><g class="node" data-node="shape8" transform="translate(40 415)"><svg width="250" height="95" viewBox="0 0 100 100" preserveAspectRatio="none" overflow="visible"><polygon points="0,22 100,0 100,100 0,100" fill="#ffffff" stroke="#000000" stroke-width="1" vector-effect="non-scaling-stroke" class="node-shape"/></svg><g class="node-copy" transform="translate(125 38.96) scale(1) translate(-107.5 0)"><text class="node-title" x="107.5" y="14" text-anchor="middle" style="font-family:'Arial',Arial,sans-serif;font-size:14px;font-weight:400;font-style:normal;fill:#000000">Entrada manual</text></g></g><g class="node" data-node="shape9" transform="translate(340 415)"><svg width="250" height="95" viewBox="0 0 100 100" preserveAspectRatio="none" overflow="visible"><polygon points="12,0 88,0 100,50 88,100 12,100 0,50" fill="#ffffff" stroke="#000000" stroke-width="1" vector-effect="non-scaling-stroke" class="node-shape"/></svg><g class="node-copy" transform="translate(125 38.96) scale(1) translate(-90 0)"><text class="node-title" x="90" y="14" text-anchor="middle" style="font-family:'Arial',Arial,sans-serif;font-size:14px;font-weight:400;font-style:normal;fill:#000000">Preparação</text></g></g><g class="node" data-node="shape10" transform="translate(640 415)"><svg width="250" height="95" viewBox="0 0 100 100" preserveAspectRatio="none" overflow="visible"><path d="M0 0H68C110 0 110 100 68 100H0Z" fill="#ffffff" stroke="#000000" stroke-width="1" vector-effect="non-scaling-stroke" class="node-shape"/></svg><g class="node-copy" transform="translate(125 38.96) scale(1) translate(-107.5 0)"><text class="node-title" x="107.5" y="14" text-anchor="middle" style="font-family:'Arial',Arial,sans-serif;font-size:14px;font-weight:400;font-style:normal;fill:#000000">Espera</text></g></g><g class="node" data-node="shape11" transform="translate(940 415)"><svg width="250" height="95" viewBox="0 0 100 100" preserveAspectRatio="none" overflow="visible"><ellipse cx="50" cy="50" rx="50" ry="50" fill="#ffffff" stroke="#000000" stroke-width="1" vector-effect="non-scaling-stroke" class="node-shape"/></svg><g class="node-copy" transform="translate(125 38.96) scale(1) translate(-107.5 0)"><text class="node-title" x="107.5" y="14" text-anchor="middle" style="font-family:'Arial',Arial,sans-serif;font-size:14px;font-weight:400;font-style:normal;fill:#000000">Conector</text></g></g><g class="node" data-node="shape12" transform="translate(40 605)"><svg width="250" height="95" viewBox="0 0 100 100" preserveAspectRatio="none" overflow="visible"><polygon points="0,0 100,0 100,72 50,100 0,72" fill="#ffffff" stroke="#000000" stroke-width="1" vector-effect="non-scaling-stroke" class="node-shape"/></svg><g class="node-copy" transform="translate(125 38.96) scale(1) translate(-107.5 0)"><text class="node-title" x="107.5" y="14" text-anchor="middle" style="font-family:'Arial',Arial,sans-serif;font-size:14px;font-weight:400;font-style:normal;fill:#000000">Conector de página</text></g></g><g class="node" data-node="shape13" transform="translate(340 605)"><svg width="250" height="95" viewBox="0 0 100 100" preserveAspectRatio="none" overflow="visible"><rect width="100" height="100" fill="#ffffff"/><path d="M10 0H0V100H10" fill="none" stroke="#000000" stroke-width="1" vector-effect="non-scaling-stroke" class="node-detail"/></svg><g class="node-copy" transform="translate(125 38.96) scale(1) translate(-107.5 0)"><text class="node-title" x="107.5" y="14" text-anchor="middle" style="font-family:'Arial',Arial,sans-serif;font-size:14px;font-weight:400;font-style:normal;fill:#000000">Anotação</text></g></g><g class="node" data-node="shape14" transform="translate(640 605)"><svg width="250" height="95" viewBox="0 0 100 100" preserveAspectRatio="none" overflow="visible"><rect width="100" height="100" fill="none" pointer-events="all"/></svg><g class="node-copy" transform="translate(125 38.96) scale(1) translate(-107.5 0)"><text class="node-title" x="107.5" y="14" text-anchor="middle" style="font-family:'Arial',Arial,sans-serif;font-size:14px;font-weight:400;font-style:normal;fill:#000000">Texto livre</text></g></g><g class="node" data-node="shape17" transform="translate(340 795)"><svg width="250" height="95" viewBox="0 0 100 100" preserveAspectRatio="none" overflow="visible"><rect width="100" height="100" rx="2" fill="#ffffff" stroke="#000000" stroke-width="1" vector-effect="non-scaling-stroke" class="node-shape"/><path d="M78 0V100M88 0V100" fill="none" stroke="#000000" stroke-width="1" vector-effect="non-scaling-stroke" class="node-detail"/></svg><g class="node-copy" transform="translate(125 38.96) scale(1) translate(-107.5 0)"><text class="node-title" x="107.5" y="14" text-anchor="middle" style="font-family:'Arial',Arial,sans-serif;font-size:14px;font-weight:400;font-style:normal;fill:#000000">Fila</text></g></g><g class="node" data-node="shape18" transform="translate(640 795)"><svg width="250" height="150" viewBox="0 0 100 100" preserveAspectRatio="none" overflow="visible"><rect width="100" height="100" rx="2" fill="#ffffff" stroke="#000000" stroke-width="1" vector-effect="non-scaling-stroke" class="node-shape"/></svg><rect x="0" y="30" width="250" height="30" fill="#f1f5f9"/><g transform="translate(10 6.460000000000001)"><g transform="scale(1)"><text x="0" y="14" text-anchor="start" style="font-family:'Arial',Arial,sans-serif;font-size:14px;font-weight:700;font-style:normal;fill:#000000">Tabela</text></g></g><line x1="0" y1="30" x2="250" y2="30" stroke="#000000"/><line x1="0" y1="60" x2="250" y2="60" stroke="#000000"/><line x1="0" y1="90" x2="250" y2="90" stroke="#000000"/><line x1="0" y1="120" x2="250" y2="120" stroke="#000000"/><line x1="83.33333333333333" y1="30" x2="83.33333333333333" y2="150" stroke="#000000"/><line x1="166.66666666666666" y1="30" x2="166.66666666666666" y2="150" stroke="#000000"/><g transform="translate(7 36.46)"><g transform="scale(1)"><text x="0" y="14" text-anchor="start" style="font-family:'Arial',Arial,sans-serif;font-size:14px;font-weight:700;font-style:normal;fill:#000000">Coluna</text></g></g><g transform="translate(90.33333333333333 36.46)"><g transform="scale(1)"><text x="0" y="14" text-anchor="start" style="font-family:'Arial',Arial,sans-serif;font-size:14px;font-weight:700;font-style:normal;fill:#000000">Tipo</text></g></g><g transform="translate(173.66666666666666 36.46)"><g transform="scale(1)"><text x="0" y="14" text-anchor="start" style="font-family:'Arial',Arial,sans-serif;font-size:14px;font-weight:700;font-style:normal;fill:#000000">Chave</text></g></g><g transform="translate(7 66.46000000000001)"><g transform="scale(1)"><text x="0" y="14" text-anchor="start" style="font-family:'Arial',Arial,sans-serif;font-size:14px;font-weight:400;font-style:normal;fill:#000000">id</text></g></g><g transform="translate(90.33333333333333 66.46000000000001)"><g transform="scale(1)"><text x="0" y="14" text-anchor="start" style="font-family:'Arial',Arial,sans-serif;font-size:14px;font-weight:400;font-style:normal;fill:#000000">UUID</text></g></g><g transform="translate(173.66666666666666 66.46000000000001)"><g transform="scale(1)"><text x="0" y="14" text-anchor="start" style="font-family:'Arial',Arial,sans-serif;font-size:14px;font-weight:400;font-style:normal;fill:#000000">PK</text></g></g><g transform="translate(7 96.46000000000001)"><g transform="scale(1)"><text x="0" y="14" text-anchor="start" style="font-family:'Arial',Arial,sans-serif;font-size:14px;font-weight:400;font-style:normal;fill:#000000">user_id</text></g></g><g transform="translate(90.33333333333333 96.46000000000001)"><g transform="scale(1)"><text x="0" y="14" text-anchor="start" style="font-family:'Arial',Arial,sans-serif;font-size:14px;font-weight:400;font-style:normal;fill:#000000">UUID</text></g></g><g transform="translate(173.66666666666666 96.46000000000001)"><g transform="scale(1)"><text x="0" y="14" text-anchor="start" style="font-family:'Arial',Arial,sans-serif;font-size:14px;font-weight:400;font-style:normal;fill:#000000">FK</text></g></g><g transform="translate(7 123)"><g transform="scale(0.7025761124121781)"><text x="0" y="14" text-anchor="start" style="font-family:'Arial',Arial,sans-serif;font-size:14px;font-weight:400;font-style:normal;fill:#000000">created_</text><text x="0" y="31.08" text-anchor="start" style="font-family:'Arial',Arial,sans-serif;font-size:14px;font-weight:400;font-style:normal;fill:#000000">at</text></g></g><g transform="translate(90.33333333333333 123)"><g transform="scale(0.7025761124121781)"><text x="0" y="14" text-anchor="start" style="font-family:'Arial',Arial,sans-serif;font-size:14px;font-weight:400;font-style:normal;fill:#000000">TIMESTAM</text><text x="0" y="31.08" text-anchor="start" style="font-family:'Arial',Arial,sans-serif;font-size:14px;font-weight:400;font-style:normal;fill:#000000">P</text></g></g><g transform="translate(173.66666666666666 126.46000000000001)"><g transform="scale(1)"><text x="0" y="14" text-anchor="start" style="font-family:'Arial',Arial,sans-serif;font-size:14px;font-weight:400;font-style:normal;fill:#000000"></text></g></g></g></g></svg>