<svg xmlns="http://www.w3.org/2000/svg" viewBox="0 0 1278 862" width="1278" height="862" role="img" aria-label="Componentes de fluxograma"><title>Componentes de fluxograma</title><style>text{font-family:Arial,sans-serif;fill:#000}.kicker{font-family:monospace;font-size:10px;font-weight:600;letter-spacing:.25px}.figure-title{font-size:21px;font-weight:700}.description{font-size:13px}.node-title{font-size:14px;font-weight:400}.node-subtitle{font-family:monospace;font-size:10px;font-weight:600}.legend-label{font-size:13px;font-weight:500}.edge-label{font-size:11px;paint-order:stroke;stroke:white;stroke-width:4px;stroke-linejoin:round}.rail{fill:none;stroke:black;stroke-width:1;stroke-linecap:round;stroke-linejoin:round}.node-shape{stroke:black;stroke-width:1;stroke-linejoin:round}.node-detail{fill:none;stroke:black;stroke-width:1}.selection{fill:none;stroke:#1675df;stroke-width:1.5;stroke-dasharray:4 3;pointer-events:none}.hit{stroke:transparent;stroke-width:14;fill:none;cursor:pointer}.node{cursor:move}.node text,.node .icon{pointer-events:none}.packet{pointer-events:none}.resize{fill:white;stroke:#1675df;cursor:nwse-resize} .diagram-controls{cursor:pointer}@media(prefers-reduced-motion:reduce){.packet{display:none}}</style><defs><pattern id="af-grid" width="5" height="5" patternUnits="userSpaceOnUse"><circle cx="1" cy="1" r=".45" fill="#e2e2e2"/></pattern><marker id="af-arrow" viewBox="0 0 7 8" markerWidth="7" markerHeight="8" refX="6" refY="4" orient="auto-start-reverse" markerUnits="userSpaceOnUse"><path d="M1 1L6 4L1 7" fill="none" stroke="black" stroke-width=".8"/></marker></defs><rect width="1278" height="862" fill="white"/><text x="32" y="44" class="kicker">CATÁLOGO · FORMAS CLÁSSICAS</text><text x="32" y="86" class="figure-title">Componentes de fluxograma</text><text x="32" y="115" class="description" text-anchor="start">Processos, decisões, dados, conectores e contêineres para montar seus diagramas.</text><line x1="0" x2="1278" y1="162" y2="162" stroke="#e0e0e0"/><rect x="32" y="138" width="14" height="14" rx="2" fill="#70a0ff" stroke="#000" stroke-width=".8"/><text x="54" y="149" class="legend-label">Solicitação</text><circle cx="161" cy="145" r="7" fill="#9ae8c5" stroke="#000" stroke-width=".8"/><text x="176" y="149" class="legend-label">Resposta</text><path d="M262 138L269 145L262 152L255 145Z" fill="#bb8ae8" stroke="#000" stroke-width=".8"/><text x="277" y="149" class="legend-label">Alterações (CDC)</text><g transform="translate(0 162)" id="af-board"><rect width="1278" height="700" fill="url(#af-grid)"/><g class="node" data-node="shape15" transform="translate(940 410)"><rect width="230" height="85" rx="4" class="node-shape" fill="#ffffff" style="stroke:#000000"/><text x="115" y="25" class="node-title" style="fill:#000000" text-anchor="middle">Grupo / contêiner</text></g><g class="node" data-node="shape16" transform="translate(40 535)"><rect width="230" height="85" rx="0" class="node-shape" fill="#ffffff" style="stroke:#000000"/><path d="M0 36H230" class="node-detail" style="stroke:#000000"/><text x="115" y="25" class="node-title" style="fill:#000000" text-anchor="middle">Raia</text></g><g class="node" data-node="shape0" transform="translate(40 35)"><rect width="230" height="85" rx="4" class="node-shape" fill="#ffffff" style="stroke:#000000"/><g transform="translate(12 42.5) scale(1) translate(-12 -42.5)"><text x="12" y="47" class="node-title" style="fill:#000000" text-anchor="start">Cartão / serviço</text></g></g><g class="node" data-node="shape1" transform="translate(340 35)"><rect width="230" height="85" rx="0" class="node-shape" fill="#ffffff" style="stroke:#000000"/><g transform="translate(115 42.5) scale(1) translate(-115 -42.5)"><text x="115" y="47" class="node-title" style="fill:#000000" text-anchor="middle">Processo</text></g></g><g class="node" data-node="shape2" transform="translate(640 35)"><rect width="230" height="85" rx="42.5" class="node-shape" fill="#ffffff" style="stroke:#000000"/><g transform="translate(115 42.5) scale(1) translate(-115 -42.5)"><text x="115" y="47" class="node-title" style="fill:#000000" text-anchor="middle">Início / fim</text></g></g><g class="node" data-node="shape3" transform="translate(940 35)"><polygon points="115,0 230,42.5 115,85 0,42.5" class="node-shape" fill="#ffffff" style="stroke:#000000"/><g transform="translate(115 42.5) scale(1) translate(-115 -42.5)"><text x="115" y="47" class="node-title" style="fill:#000000" text-anchor="middle">Decisão</text></g></g><g class="node" data-node="shape4" transform="translate(40 160)"><polygon points="20,0 230,0 210,85 0,85" class="node-shape" fill="#ffffff" style="stroke:#000000"/><g transform="translate(115 42.5) scale(1) translate(-115 -42.5)"><text x="115" y="47" class="node-title" style="fill:#000000" text-anchor="middle">Entrada / saída</text></g></g><g class="node" data-node="shape5" transform="translate(340 160)"><rect width="230" height="85" rx="0" class="node-shape" fill="#ffffff" style="stroke:#000000"/><path d="M12 0V85M218 0V85" class="node-detail" style="stroke:#000000"/><g transform="translate(115 42.5) scale(1) translate(-115 -42.5)"><text x="115" y="47" class="node-title" style="fill:#000000" text-anchor="middle">Subprocesso</text></g></g><g class="node" data-node="shape6" transform="translate(640 160)"><path d="M0 0H230V73C138 50 92 93 0 73Z" class="node-shape" fill="#ffffff" style="stroke:#000000"/><g transform="translate(115 42.5) scale(1) translate(-115 -42.5)"><text x="115" y="47" class="node-title" style="fill:#000000" text-anchor="middle">Documento</text></g></g><g class="node" data-node="shape7" transform="translate(940 160)"><path d="M0 12C0 -4 230 -4 230 12V73C230 89 0 89 0 73Z" class="node-shape" fill="#ffffff" style="stroke:#000000"/><path d="M0 12C0 28 230 28 230 12" class="node-detail" style="stroke:#000000"/><g transform="translate(115 42.5) scale(1) translate(-115 -42.5)"><text x="115" y="47" class="node-title" style="fill:#000000" text-anchor="middle">Banco de dados</text></g></g><g class="node" data-node="shape8" transform="translate(40 285)"><polygon points="0,16 230,0 230,85 0,85" class="node-shape" fill="#ffffff" style="stroke:#000000"/><g transform="translate(115 42.5) scale(1) translate(-115 -42.5)"><text x="115" y="47" class="node-title" style="fill:#000000" text-anchor="middle">Entrada manual</text></g></g><g class="node" data-node="shape9" transform="translate(340 285)"><polygon points="20,0 210,0 230,42.5 210,85 20,85 0,42.5" class="node-shape" fill="#ffffff" style="stroke:#000000"/><g transform="translate(115 42.5) scale(1) translate(-115 -42.5)"><text x="115" y="47" class="node-title" style="fill:#000000" text-anchor="middle">Preparação</text></g></g><g class="node" data-node="shape10" transform="translate(640 285)"><path d="M0 0H187.5A42.5 42.5 0 0 1 187.5 85H0Z" class="node-shape" fill="#ffffff" style="stroke:#000000"/><g transform="translate(115 42.5) scale(1) translate(-115 -42.5)"><text x="115" y="47" class="node-title" style="fill:#000000" text-anchor="middle">Espera</text></g></g><g class="node" data-node="shape11" transform="translate(940 285)"><ellipse cx="115" cy="42.5" rx="115" ry="42.5" class="node-shape" fill="#ffffff" style="stroke:#000000"/><g transform="translate(115 42.5) scale(1) translate(-115 -42.5)"><text x="115" y="47" class="node-title" style="fill:#000000" text-anchor="middle">Conector</text></g></g><g class="node" data-node="shape12" transform="translate(40 410)"><polygon points="0,0 230,0 230,65 115,85 0,65" class="node-shape" fill="#ffffff" style="stroke:#000000"/><g transform="translate(115 42.5) scale(1) translate(-115 -42.5)"><text x="115" y="47" class="node-title" style="fill:#000000" text-anchor="middle">Conector de página</text></g></g><g class="node" data-node="shape13" transform="translate(340 410)"><rect width="230" height="85" fill="#ffffff"/><path d="M15 0H0V85H15" class="node-detail" style="stroke:#000000"/><g transform="translate(115 42.5) scale(1) translate(-115 -42.5)"><text x="115" y="47" class="node-title" style="fill:#000000" text-anchor="middle">Anotação</text></g></g><g class="node" data-node="shape14" transform="translate(640 410)"><rect width="230" height="85" fill="none" pointer-events="all"/><text x="115" y="16" class="kicker" style="fill:#000000" text-anchor="middle">Texto livre</text></g><g class="node" data-node="shape17" transform="translate(340 535)"><rect width="230" height="85" rx="0" class="node-shape" fill="#ffffff" style="stroke:#000000"/><path d="M210 0V85M190 0V85" class="node-detail" style="stroke:#000000"/><g transform="translate(115 42.5) scale(1) translate(-115 -42.5)"><text x="115" y="47" class="node-title" style="fill:#000000" text-anchor="middle">Fila</text></g></g></g></svg>